<svg xmlns="http://www.w3.org/2000/svg" xmlns:xlink="http://www.w3.org/1999/xlink" zoomAndPan="magnify" preserveAspectRatio="xMidYMid meet" version="1.0" viewBox="45.29 139.64 287.15 87.26"><defs><g/><clipPath id="e1ce874dc6"><path d="M 312.839844 207.300781 L 332.441406 207.300781 L 332.441406 226.902344 L 312.839844 226.902344 Z M 312.839844 207.300781 " clip-rule="nonzero"/></clipPath><clipPath id="d794f5b55e"><path d="M 322.640625 207.300781 C 317.230469 207.300781 312.839844 211.6875 312.839844 217.101562 C 312.839844 222.515625 317.230469 226.902344 322.640625 226.902344 C 328.054688 226.902344 332.441406 222.515625 332.441406 217.101562 C 332.441406 211.6875 328.054688 207.300781 322.640625 207.300781 Z M 322.640625 207.300781 " clip-rule="nonzero"/></clipPath></defs><g fill="#FFFFFF " fill-opacity="1"><g transform="translate(43.50834, 224.624985)"><g><path d="M 22.203125 0.75 C 8.585938 0.75 1.78125 -6.148438 1.78125 -19.953125 L 1.875 -25.40625 L 18.34375 -25.40625 L 18.453125 -17.3125 C 18.453125 -15.6875 18.765625 -14.445312 19.390625 -13.59375 C 20.015625 -12.75 21.046875 -12.328125 22.484375 -12.328125 C 24.679688 -12.328125 25.78125 -14.113281 25.78125 -17.6875 C 25.78125 -20.320312 25.265625 -22.390625 24.234375 -23.890625 C 23.203125 -25.398438 21.554688 -27.003906 19.296875 -28.703125 L 10.546875 -35.484375 C 7.523438 -37.804688 5.359375 -40.203125 4.046875 -42.671875 C 2.734375 -45.148438 2.078125 -48.648438 2.078125 -53.171875 C 2.078125 -56.679688 3 -59.675781 4.84375 -62.15625 C 6.695312 -64.632812 9.160156 -66.5 12.234375 -67.75 C 15.304688 -69.007812 18.722656 -69.640625 22.484375 -69.640625 C 35.847656 -69.640625 42.53125 -62.988281 42.53125 -49.6875 L 42.53125 -48.375 L 25.5 -48.375 L 25.5 -51 C 25.5 -52.632812 25.234375 -54.03125 24.703125 -55.1875 C 24.171875 -56.351562 23.273438 -56.9375 22.015625 -56.9375 C 20.890625 -56.9375 20.03125 -56.601562 19.4375 -55.9375 C 18.84375 -55.28125 18.546875 -54.390625 18.546875 -53.265625 C 18.546875 -50.753906 19.515625 -48.8125 21.453125 -47.4375 L 31.625 -40 C 35.257812 -37.300781 38.046875 -34.363281 39.984375 -31.1875 C 41.929688 -28.019531 42.90625 -24.023438 42.90625 -19.203125 C 42.90625 -12.796875 41.085938 -7.867188 37.453125 -4.421875 C 33.816406 -0.972656 28.734375 0.75 22.203125 0.75 Z M 22.203125 0.75 "/></g></g></g><g fill="#FFFFFF " fill-opacity="1"><g transform="translate(83.0306, 224.624985)"><g><path d="M 3.296875 0 L 3.296875 -81.3125 L 19.578125 -81.3125 L 19.578125 -45.171875 L 27.484375 -68.890625 L 44.515625 -68.890625 L 34.15625 -38.96875 L 47.34375 0 L 29.828125 0 L 19.578125 -32.46875 L 19.578125 0 Z M 3.296875 0 "/></g></g></g><g fill="#FFFFFF " fill-opacity="1"><g transform="translate(124.05849, 224.624985)"><g><path d="M 3.203125 -73.5 L 3.203125 -84.984375 L 19.671875 -84.984375 L 19.671875 -73.5 Z M 3.203125 0 L 3.203125 -68.890625 L 19.671875 -68.890625 L 19.671875 0 Z M 3.203125 0 "/></g></g></g><g fill="#FFFFFF " fill-opacity="1"><g transform="translate(141.749201, 224.624985)"><g><path d="M 3.296875 0 L 3.296875 -81.3125 L 20.046875 -81.3125 L 20.046875 0 Z M 3.296875 0 "/></g></g></g><g fill="#FFFFFF " fill-opacity="1"><g transform="translate(159.910413, 224.624985)"><g><path d="M 3.296875 0 L 3.296875 -81.3125 L 20.046875 -81.3125 L 20.046875 0 Z M 3.296875 0 "/></g></g></g><g fill="#FFFFFF " fill-opacity="1"><g transform="translate(178.071625, 224.624985)"><g><path d="M 3.296875 -81.3125 L 20.234375 -81.3125 L 20.234375 -62.109375 C 21.992188 -67.128906 25.347656 -69.640625 30.296875 -69.640625 C 34.941406 -69.640625 38.457031 -68.164062 40.84375 -65.21875 C 43.226562 -62.269531 44.421875 -58.222656 44.421875 -53.078125 L 44.421875 0 L 27.953125 0 L 27.953125 -52.046875 C 27.953125 -53.546875 27.601562 -54.765625 26.90625 -55.703125 C 26.21875 -56.648438 25.21875 -57.125 23.90625 -57.125 C 22.769531 -57.125 21.875 -56.632812 21.21875 -55.65625 C 20.5625 -54.6875 20.234375 -53.515625 20.234375 -52.140625 L 20.234375 0 L 3.296875 0 Z M 3.296875 -81.3125 "/></g></g></g><g fill="#FFFFFF " fill-opacity="1"><g transform="translate(220.416937, 224.624985)"><g><path d="M 16.5625 0.75 C 11.414062 0.75 7.882812 -0.785156 5.96875 -3.859375 C 4.0625 -6.929688 3.109375 -11.507812 3.109375 -17.59375 L 3.109375 -68.890625 L 19.671875 -68.890625 L 19.671875 -20.890625 C 19.671875 -20.453125 19.671875 -19.273438 19.671875 -17.359375 C 19.671875 -15.453125 19.96875 -14.101562 20.5625 -13.3125 C 21.15625 -12.53125 22.082031 -12.140625 23.34375 -12.140625 C 25.03125 -12.140625 26.09375 -12.84375 26.53125 -14.25 C 26.976562 -15.664062 27.203125 -17.691406 27.203125 -20.328125 L 27.203125 -20.890625 L 27.296875 -68.890625 L 43.671875 -68.890625 L 43.671875 0 L 27.203125 0 L 27.203125 -7.34375 C 26.066406 -4.457031 24.742188 -2.382812 23.234375 -1.125 C 21.734375 0.125 19.507812 0.75 16.5625 0.75 Z M 16.5625 0.75 "/></g></g></g><g fill="#FFFFFF " fill-opacity="1"><g transform="translate(262.197642, 224.624985)"><g><path d="M 29.921875 0.75 C 25.410156 0.75 22.179688 -1.945312 20.234375 -7.34375 L 20.234375 0 L 3.296875 0 L 3.296875 -81.3125 L 20.234375 -81.3125 L 20.234375 -65.59375 C 22.867188 -68.289062 25.941406 -69.640625 29.453125 -69.640625 C 34.785156 -69.640625 38.613281 -68.054688 40.9375 -64.890625 C 43.257812 -61.722656 44.421875 -57.160156 44.421875 -51.203125 L 44.421875 -17.96875 C 44.421875 -12.320312 43.226562 -7.789062 40.84375 -4.375 C 38.457031 -0.957031 34.816406 0.75 29.921875 0.75 Z M 24.375 -12.046875 C 25.5 -12.046875 26.296875 -12.40625 26.765625 -13.125 C 27.242188 -13.84375 27.53125 -14.75 27.625 -15.84375 C 27.71875 -16.945312 27.765625 -18.660156 27.765625 -20.984375 L 27.765625 -49.6875 C 27.765625 -52.132812 27.539062 -53.953125 27.09375 -55.140625 C 26.65625 -56.335938 25.71875 -56.9375 24.28125 -56.9375 C 22.707031 -56.9375 21.640625 -56.335938 21.078125 -55.140625 C 20.515625 -53.953125 20.234375 -52.195312 20.234375 -49.875 L 20.234375 -20.984375 C 20.234375 -17.972656 20.484375 -15.726562 20.984375 -14.25 C 21.484375 -12.78125 22.613281 -12.046875 24.375 -12.046875 Z M 24.375 -12.046875 "/></g></g></g><g clip-path="url(#e1ce874dc6)"><g clip-path="url(#d794f5b55e)"><path fill="#FFFFFF " d="M 312.839844 207.300781 L 332.441406 207.300781 L 332.441406 226.902344 L 312.839844 226.902344 Z M 312.839844 207.300781 " fill-opacity="1" fill-rule="nonzero"/></g></g></svg>